Coordinates
version=1
nRows=13
nColumns=63
inDegrees=yes

Units are S.I. units (second, meters, Newtons, ...)
If the header above contains a line with 'inDegrees', this indicates whether rotational values are in degrees (yes) or radians (no).

endheader
time	pelvis_tilt	pelvis_list	pelvis_rotation	pelvis_tx	pelvis_ty	pelvis_tz	hip_flexion_r	hip_adduction_r	hip_rotation_r	knee_angle_r	knee_angle_r_beta	ankle_angle_r	subtalar_angle_r	mtp_angle_r	hip_flexion_l	hip_adduction_l	hip_rotation_l	knee_angle_l	knee_angle_l_beta	ankle_angle_l	subtalar_angle_l	mtp_angle_l	L5_S1_Flex_Ext	L5_S1_Lat_Bending	L5_S1_axial_rotation	L4_L5_Flex_Ext	L4_L5_Lat_Bending	L4_L5_axial_rotation	L3_L4_Flex_Ext	L3_L4_Lat_Bending	L3_L4_axial_rotation	L2_L3_Flex_Ext	L2_L3_Lat_Bending	L2_L3_axial_rotation	L1_L2_Flex_Ext	L1_L2_Lat_Bending	L1_L2_axial_rotation	L1_T12_Flex_Ext	L1_T12_Lat_Bending	L1_T12_axial_rotation	Abs_r3	Abs_r2	Abs_r1	Abs_t1	Abs_t2	neck_flexion	neck_bending	neck_rotation	arm_flex_r	arm_add_r	arm_rot_r	elbow_flex_r	pro_sup_r	wrist_flex_r	wrist_dev_r	arm_flex_l	arm_add_l	arm_rot_l	elbow_flex_l	pro_sup_l	wrist_flex_l	wrist_dev_l
0.000000	-3.335511	-4.833837	78.853406	0.220177	0.867637	0.670821	1.833242	-4.813447	-7.289174	8.424964	0.147043	27.391105	16.538049	0.000000	-3.758587	1.105611	5.582070	1.419525	0.024775	19.812987	-12.816016	0.000000	0.029122	-0.159143	1.769382	0.054082	-0.211660	1.879968	0.047844	-0.386940	1.879968	0.033283	-0.386940	1.548209	0.027043	-0.324524	1.437623	0.016640	-0.246512	1.327037	0.208015	-1.800255	9.840773	0.000000	0.000000	8.953068	-0.164383	-2.577632	-1.020341	-7.584355	35.555083	54.483007	43.271095	19.240373	6.944725	1.591187	-11.767061	45.201852	59.361956	78.804314	8.060535	-10.163926
0.016949	-3.314750	-4.745204	79.207548	0.219500	0.867251	0.669832	1.779626	-4.930284	-8.342160	8.967348	0.156510	28.004953	16.900686	0.000000	-3.926532	1.096175	6.542251	1.457082	0.025431	19.836434	-13.293333	0.000000	0.022121	-0.150206	1.697328	0.041081	-0.199774	1.803411	0.036342	-0.365212	1.803411	0.025282	-0.365212	1.485162	0.020541	-0.306301	1.379079	0.012640	-0.232670	1.272996	0.158007	-1.699164	9.440028	0.000000	0.000000	8.969632	-0.725829	-2.287189	-1.910118	-7.387435	34.338350	55.438197	45.400897	18.367844	7.121896	1.501510	-11.756010	45.154956	59.847152	76.416439	7.930690	-8.966967
0.033898	-3.287889	-4.666646	79.499385	0.218931	0.866935	0.669048	1.734563	-5.018549	-9.212184	9.421203	0.164431	28.534939	17.199999	0.000000	-4.069361	1.080163	7.284290	1.489246	0.025992	19.860085	-13.625301	0.000000	0.015983	-0.142127	1.646223	0.029683	-0.189030	1.749112	0.026259	-0.345569	1.749112	0.018267	-0.345569	1.440445	0.014842	-0.289826	1.337556	0.009133	-0.220155	1.234667	0.114168	-1.607774	9.155798	0.000000	0.000000	8.969618	-1.174987	-2.113539	-2.666605	-7.224077	33.282038	56.205581	47.202647	17.665698	7.242977	1.459439	-11.732455	45.179630	60.183466	74.585523	7.820992	-8.046483
0.050847	-3.256436	-4.597745	79.734076	0.218462	0.866685	0.668452	1.697025	-5.081237	-9.913195	9.792035	0.170903	28.987005	17.441329	0.000000	-4.188766	1.058968	7.831242	1.516274	0.026464	19.883366	-13.830325	0.000000	0.010641	-0.134959	1.613886	0.019762	-0.179496	1.714754	0.017483	-0.328140	1.714754	0.012162	-0.328140	1.412151	0.009882	-0.275209	1.311283	0.006080	-0.209052	1.210415	0.076010	-1.526684	8.975952	0.000000	0.000000	8.954274	-1.522610	-2.044467	-3.298302	-7.091631	32.377923	56.800546	48.702369	17.119385	7.311793	1.459220	-11.698487	45.265878	60.387227	73.256676	7.730859	-7.374796
0.067797	-3.221899	-4.538084	79.916780	0.218086	0.866494	0.668024	1.665982	-5.121345	-10.459141	10.085350	0.176023	29.367095	17.630020	0.000000	-4.286437	1.033985	8.206161	1.538425	0.026851	19.905705	-13.926808	0.000000	0.006026	-0.128754	1.598137	0.011191	-0.171243	1.698020	0.009900	-0.313053	1.698020	0.006887	-0.313053	1.398370	0.005596	-0.262555	1.298486	0.003443	-0.199440	1.198603	0.043043	-1.456492	8.888357	0.000000	0.000000	8.924850	-1.779449	-2.067763	-3.813709	-6.987451	31.617782	57.238480	49.926088	16.714353	7.332169	1.495099	-11.656196	45.403704	60.474764	72.375007	7.659709	-6.924227
0.084746	-3.185783	-4.487245	80.052656	0.217797	0.866357	0.667747	1.640406	-5.141871	-10.863973	10.306655	0.179885	29.681153	17.771413	0.000000	-4.364064	1.006606	8.432102	1.555958	0.027157	19.926528	-13.933157	0.000000	0.002069	-0.123566	1.596793	0.003843	-0.164342	1.696592	0.003399	-0.300437	1.696592	0.002365	-0.300437	1.397194	0.001921	-0.251975	1.297394	0.001182	-0.191403	1.197594	0.014779	-1.397798	8.880881	0.000000	0.000000	8.882594	-1.956257	-2.171214	-4.221327	-6.908887	30.993392	57.534768	50.899825	16.436054	7.307931	1.561322	-11.607670	45.583110	60.462405	71.885625	7.606959	-6.667099
0.101695	-3.149596	-4.444812	80.146863	0.217588	0.866266	0.667603	1.619267	-5.145809	-11.141640	10.461456	0.182587	29.935121	17.870851	0.000000	-4.423339	0.978226	8.532120	1.569132	0.027387	19.945263	-13.867775	0.000000	-0.001298	-0.119446	1.607673	-0.002410	-0.158863	1.708152	-0.002132	-0.290422	1.708152	-0.001483	-0.290422	1.406714	-0.001205	-0.243575	1.306234	-0.000742	-0.185022	1.205754	-0.009271	-1.351199	8.941393	0.000000	0.000000	8.828756	-2.063786	-2.342607	-4.529654	-6.853291	30.496528	57.704798	51.649606	16.269936	7.242904	1.652134	-11.555000	45.794100	60.366478	71.733639	7.572027	-6.575734
0.118644	-3.114846	-4.410367	80.204559	0.217452	0.866217	0.667573	1.601536	-5.136157	-11.306091	10.555259	0.184224	30.134943	17.933676	0.000000	-4.465950	0.950236	8.529269	1.578204	0.027545	19.961337	-13.749067	0.000000	-0.004144	-0.116449	1.628595	-0.007695	-0.154877	1.730383	-0.006807	-0.283134	1.730383	-0.004736	-0.283134	1.425021	-0.003848	-0.237463	1.323234	-0.002368	-0.180380	1.221447	-0.029597	-1.317296	9.057759	0.000000	0.000000	8.764583	-2.112788	-2.569729	-4.747191	-6.818015	30.118968	57.763958	52.201454	16.201450	7.140913	1.761782	-11.500274	46.026676	60.203313	71.864157	7.554330	-6.622454
0.135593	-3.083039	-4.383492	80.230904	0.217382	0.866202	0.667639	1.586185	-5.115911	-11.371275	10.593570	0.184893	30.286562	17.965231	0.000000	-4.493589	0.924032	8.446606	1.583435	0.027636	19.974177	-13.595437	0.000000	-0.006536	-0.114627	1.657380	-0.012138	-0.152454	1.760966	-0.010738	-0.278704	1.760966	-0.007470	-0.278704	1.450207	-0.006069	-0.233748	1.346621	-0.003735	-0.177557	1.243035	-0.046687	-1.296685	9.217848	0.000000	0.000000	8.691326	-2.114016	-2.840368	-4.882439	-6.800410	29.852488	57.727632	52.581393	16.216045	7.005784	1.884511	-11.445583	46.270841	59.989238	72.222289	7.553288	-6.779581
0.152542	-3.055681	-4.363770	80.231057	0.217370	0.866217	0.667784	1.572184	-5.088068	-11.351142	10.581896	0.184689	30.395921	17.970857	0.000000	-4.507946	0.901006	8.307183	1.585082	0.027665	19.983209	-13.425290	0.000000	-0.008544	-0.114033	1.691844	-0.015867	-0.151664	1.797584	-0.014037	-0.277260	1.797584	-0.009765	-0.277260	1.480363	-0.007934	-0.232537	1.374623	-0.004882	-0.176637	1.268883	-0.061030	-1.289967	9.409529	0.000000	0.000000	8.610232	-2.078222	-3.142311	-4.943896	-6.797828	29.688865	57.611209	52.815446	16.299170	6.841343	2.014568	-11.393016	46.516599	59.740581	72.753144	7.568316	-7.019436
0.169492	-3.034281	-4.350784	80.210177	0.217411	0.866254	0.667989	1.558505	-5.055624	-11.259640	10.525743	0.183709	30.468963	17.955897	0.000000	-4.510712	0.882552	8.134057	1.583403	0.027636	19.987862	-13.257031	0.000000	-0.010236	-0.114720	1.729807	-0.019009	-0.152578	1.837920	-0.016817	-0.278931	1.837920	-0.011699	-0.278931	1.513581	-0.009505	-0.233938	1.405468	-0.005849	-0.177702	1.297355	-0.073115	-1.297739	9.620668	0.000000	0.000000	8.522550	-2.016158	-3.463346	-4.940064	-6.807620	29.619875	57.430076	52.929638	16.436276	6.651413	2.146198	-11.344663	46.753953	59.473672	73.401830	7.598834	-7.314343
0.186441	-3.024648	-4.355079	80.179991	0.217478	0.866297	0.668223	1.542289	-5.020126	-11.103686	10.398127	0.181482	30.483609	17.934354	0.000000	-4.491637	0.872104	8.007669	1.573050	0.027455	19.973828	-13.195287	0.000000	-0.011398	-0.116257	1.759854	-0.021166	-0.154622	1.869845	-0.018725	-0.282667	1.869845	-0.013026	-0.282667	1.539872	-0.010584	-0.237071	1.429882	-0.006513	-0.180082	1.319891	-0.081412	-1.315123	9.787781	0.000000	0.000000	8.461423	-1.968231	-3.715502	-4.891132	-6.812705	29.595853	57.255284	53.084739	16.554942	6.482839	2.243038	-11.320817	46.948144	59.263116	74.005071	7.622701	-7.633588
0.203390	-3.026260	-4.354906	80.117744	0.217619	0.866360	0.668488	1.511484	-4.986189	-10.844369	10.224718	0.178455	30.497515	17.866315	0.000000	-4.477742	0.873744	7.848827	1.565168	0.027317	19.986430	-13.104034	0.000000	-0.013603	-0.120072	1.794871	-0.025263	-0.159696	1.907051	-0.022349	-0.291944	1.907051	-0.015547	-0.291944	1.570512	-0.012632	-0.244852	1.458333	-0.007773	-0.185992	1.346154	-0.097168	-1.358282	9.982536	0.000000	0.000000	8.366162	-1.912068	-3.981516	-4.775398	-6.837390	29.710857	57.026614	52.974427	16.729135	6.307824	2.334451	-11.294313	47.094111	59.047689	74.726822	7.634656	-8.039551
